<svg width="36" height="28" viewBox="0 0 36 28" fill="none" xmlns="http://www.w3.org/2000/svg">
<path d="M1 0.5H6C6.27614 0.5 6.5 0.723858 6.5 1V6.5H0.5V1L0.509766 0.899414C0.556292 0.671447 0.758287 0.5 1 0.5Z" fill="white" stroke="white"/>
<rect x="0.5" y="7.5" width="6" height="6" fill="white" stroke="white"/>
<path d="M7 7H13C13.5523 7 14 7.44772 14 8V13C14 13.5523 13.5523 14 13 14H7V7Z" fill="white"/>
<path d="M6.5 14.5V20.5H1C0.723858 20.5 0.5 20.2761 0.5 20V14.5H6.5Z" fill="white" stroke="white"/>
<path d="M13 21.5C13.2761 21.5 13.5 21.7239 13.5 22V27C13.5 27.2761 13.2761 27.5 13 27.5H8C7.72386 27.5 7.5 27.2761 7.5 27V21.5H13Z" fill="white" stroke="white"/>
<path d="M7 6C7 6.55228 7.44772 7 8 7H10V10H5V5H7V6Z" fill="white"/>
<path d="M10 14H8C7.44772 14 7 14.4477 7 15V17H5V12H10V14Z" fill="white"/>
<path d="M7 20C7 20.5523 7.44772 21 8 21H10V24H7V22C7 21.4477 6.55228 21 6 21H5V19H7V20Z" fill="white"/>
<path d="M15 15C15 14.4477 15.4477 14 16 14H22V21H16C15.4477 21 15 20.5523 15 20V15Z" fill="white"/>
<path d="M22 8C22 7.44772 22.4477 7 23 7H28C28.5523 7 29 7.44772 29 8V14H22V8Z" fill="white"/>
<path d="M25 14H23C22.4477 14 22 14.4477 22 15V17H20V14H21C21.5523 14 22 13.5523 22 13V12H25V14Z" fill="white"/>
<path d="M29 17V15C29 14.4477 28.5523 14 28 14H26V12H29V13C29 13.5523 29.4477 14 30 14H31V17H29Z" fill="white"/>
<path d="M32 21H30C29.4477 21 29 21.4477 29 22V24H27V21H28C28.5523 21 29 20.5523 29 20V19H32V21Z" fill="white"/>
<path d="M22 24V22C22 21.4477 21.5523 21 21 21H19V19H22V20C22 20.5523 22.4477 21 23 21H24V24H22Z" fill="white"/>
<path d="M22 21H29V27C29 27.5523 28.5523 28 28 28H23C22.4477 28 22 27.5523 22 27V21Z" fill="white"/>
<path d="M29 14H35C35.5523 14 36 14.4477 36 15V20C36 20.5523 35.5523 21 35 21H29V14Z" fill="white"/>
</svg>
