<svg width="52" height="40" viewBox="0 0 52 40" fill="none" xmlns="http://www.w3.org/2000/svg">
<path d="M1 0.5H9C9.27614 0.5 9.5 0.723858 9.5 1V9.5H0.5V1L0.509766 0.899414C0.556292 0.671447 0.758287 0.5 1 0.5Z" fill="#1B5E20" stroke="#1B5E20"/>
<rect x="0.5" y="10.5" width="9" height="9" fill="#1B5E20" stroke="#1B5E20"/>
<path d="M19 10.5C19.2761 10.5 19.5 10.7239 19.5 11V19C19.5 19.2761 19.2761 19.5 19 19.5H10.5V10.5H19Z" fill="#1B5E20" stroke="#1B5E20"/>
<path d="M9.5 20.5V29.5H1C0.723858 29.5 0.5 29.2761 0.5 29V20.5H9.5Z" fill="#1B5E20" stroke="#1B5E20"/>
<path d="M19 30.5C19.2761 30.5 19.5 30.7239 19.5 31V39C19.5 39.2761 19.2761 39.5 19 39.5H11C10.7239 39.5 10.5 39.2761 10.5 39V30.5H19Z" fill="#1B5E20" stroke="#1B5E20"/>
<path d="M10 8C10 9.10457 10.8954 10 12 10H14V14H6V6H10V8Z" fill="#1B5E20"/>
<path d="M14 20H12C10.8954 20 10 20.8954 10 22V24H6V16H14V20Z" fill="#1B5E20"/>
<path d="M10 28C10 29.1046 10.8954 30 12 30H14V34H10V32C10 30.8954 9.10457 30 8 30H6V26H10V28Z" fill="#1B5E20"/>
<path d="M22 21C22 20.4477 22.4477 20 23 20H32V30H23C22.4477 30 22 29.5523 22 29V21Z" fill="#038979"/>
<path d="M32 11C32 10.4477 32.4477 10 33 10H41C41.5523 10 42 10.4477 42 11V20H32V11Z" fill="#038979"/>
<path d="M36 20H34C32.8954 20 32 20.8954 32 22V24H28V20H30C31.1046 20 32 19.1046 32 18V16H36V20Z" fill="#038979"/>
<path d="M32 34V32C32 30.8954 31.1046 30 30 30H28V26H32V28C32 29.1046 32.8954 30 34 30H36V34H32Z" fill="#038979"/>
<path d="M42 16V18C42 19.1046 42.8954 20 44 20H46V24H42V22C42 20.8954 41.1046 20 40 20H38V16H42Z" fill="#038979"/>
<path d="M46 30H44C42.8954 30 42 30.8954 42 32V34H38V30H40C41.1046 30 42 29.1046 42 28V26H46V30Z" fill="#038979"/>
<path d="M32 30H42V39C42 39.5523 41.5523 40 41 40H33C32.4477 40 32 39.5523 32 39V30Z" fill="#038979"/>
<path d="M42 20H51C51.5523 20 52 20.4477 52 21V29C52 29.5523 51.5523 30 51 30H42V20Z" fill="#038979"/>
</svg>
